<?xml version="1.0" standalone="no"?>
<!DOCTYPE svg PUBLIC "-//W3C//DTD SVG 20010904//EN"
 "http://www.w3.org/TR/2001/REC-SVG-20010904/DTD/svg10.dtd">
<svg version="1.0" xmlns="http://www.w3.org/2000/svg"
 width="512.000000pt" height="512.000000pt" viewBox="0 0 512.000000 512.000000"
 preserveAspectRatio="xMidYMid meet">
<metadata>
Created by potrace 1.11, written by Peter Selinger 2001-2013
</metadata>
<g transform="translate(0.000000,512.000000) scale(0.100000,-0.100000)"
fill="#000000" stroke="none">
<path d="M2375 4555 c-5 -1 -63 -11 -129 -21 l-118 -18 -32 -41 c-137 -170
-257 -568 -291 -960 -4 -38 -8 -79 -10 -91 -14 -86 -28 -723 -17 -747 3 -7
169 268 195 323 4 8 43 76 86 150 l78 135 84 52 c119 73 235 141 299 176 30
16 60 33 65 37 50 38 536 262 662 305 101 35 266 85 295 90 17 3 34 7 37 9 10
7 222 37 239 35 4 -1 39 -1 77 0 l70 1 -35 31 c-215 188 -390 300 -616 392
-143 59 -302 104 -427 122 -27 3 -59 9 -70 12 -24 5 -425 13 -442 8z"/>
<path d="M1930 4460 c-133 -48 -158 -58 -250 -104 -299 -148 -557 -367 -750
-639 -94 -133 -170 -272 -233 -428 -51 -127 -51 -127 -13 -205 127 -262 463
-577 941 -884 123 -78 438 -260 443 -255 2 2 -76 142 -173 312 l-178 308 -1
305 c0 271 6 473 19 580 2 19 9 79 15 134 7 54 14 108 16 120 2 11 6 38 9 59
3 21 7 48 10 60 65 294 120 457 202 599 18 31 33 59 33 62 0 8 -4 7 -90 -24z"/>
<path d="M3789 3925 c-2 -2 -31 -6 -64 -10 -175 -19 -449 -104 -720 -225 -184
-82 -431 -211 -619 -323 l-121 -72 365 -5 365 -5 90 -51 c571 -323 881 -543
1143 -813 92 -95 169 -193 226 -288 21 -35 39 -63 41 -63 5 0 25 72 30 108 2
15 6 43 9 62 40 237 31 523 -25 768 -45 199 -148 454 -231 574 -10 14 -18 29
-18 32 0 17 -132 194 -202 270 l-36 40 -115 2 c-63 2 -116 1 -118 -1z"/>
<path d="M3050 3176 c0 -7 7 -19 180 -320 75 -133 146 -257 156 -276 17 -32
18 -63 18 -330 0 -262 -8 -502 -19 -571 -2 -13 -6 -55 -10 -94 -3 -38 -15
-126 -26 -195 -50 -305 -126 -547 -220 -700 -16 -26 -29 -50 -29 -53 0 -12
205 65 315 117 468 223 813 595 1016 1099 l43 107 -38 78 c-36 73 -100 171
-155 237 -113 135 -401 387 -591 516 -36 24 -67 47 -70 50 -5 5 -257 163 -330
206 -96 57 -240 134 -240 129z"/>
<path d="M619 3055 c-1 -11 -2 -18 -18 -95 -12 -60 -17 -90 -30 -195 -11 -88
-6 -412 8 -485 6 -30 13 -71 16 -90 34 -209 150 -505 272 -695 97 -150 204
-280 241 -292 31 -10 212 -9 287 2 28 3 64 9 80 11 17 2 57 11 90 20 33 8 67
17 76 19 34 7 204 66 316 111 166 65 413 184 604 289 120 67 289 168 286 171
-2 2 -160 4 -353 5 l-349 1 -112 59 c-662 349 -1170 758 -1373 1106 -22 37
-40 64 -41 58z"/>
<path d="M3311 2408 c-13 -23 -93 -163 -178 -310 l-154 -266 -137 -84 c-75
-46 -146 -88 -157 -94 -11 -6 -67 -37 -125 -69 -107 -59 -347 -180 -410 -208
-269 -117 -534 -204 -682 -223 -24 -3 -59 -9 -78 -13 -19 -4 -77 -7 -127 -7
-51 1 -93 -2 -93 -5 0 -3 19 -24 43 -45 202 -189 470 -345 736 -430 109 -35
289 -73 378 -82 146 -13 446 -7 538 12 53 10 105 17 109 14 15 -12 121 144
161 237 59 140 113 326 140 487 3 18 8 40 10 48 2 8 7 39 10 69 4 30 8 61 10
70 3 16 12 101 20 191 17 191 28 677 15 728 -5 22 -7 21 -29 -20z"/>
</g>
</svg>
